# xmcd
#
# Track frame offsets:
#	150
#	17613
#	30987
#	46589
#	64671
#	78112
#	99115
#	114011
#	127587
#	147953
#	164240
#	183644
#	198920
#	215076
#	236796
#	255419
#	277862
#
# Disc length: 3944 seconds
#
# Revision: 1
# Processed by: cddbd v1.4PL0 Copyright (c) Steve Scherf et al.
# Submitted via: audiograbber 1.81.02
#
DISCID=d30f6611
DTITLE=Buddy Greene - Pilgrimage: A Collection of Favorites
DYEAR=2003
DGENRE=Christian
TTITLE0=He Is
TTITLE1=More Like Jesus
TTITLE2=Since Jesus Came Into My HEart
TTITLE3=Virtuous Woman
TTITLE4=Short of The Mark
TTITLE5=Love Waits
TTITLE6=God's Own Lamb
TTITLE7=God Is With Us
TTITLE8=Man Against Man
TTITLE9=How Long
TTITLE10=Divine Love
TTITLE11=Mary, Did You Know?
TTITLE12=Classical Medley
TTITLE13=Jesus Has Left The Building
TTITLE14=In His Pressence
TTITLE15=Shining As Stars
TTITLE16=Come To Me
EXTD=
EXTT0=
EXTT1=
EXTT2=
EXTT3=
EXTT4=
EXTT5=
EXTT6=
EXTT7=
EXTT8=
EXTT9=
EXTT10=
EXTT11=
EXTT12=
EXTT13=
EXTT14=
EXTT15=
EXTT16=
PLAYORDER=
